{
  "ffprobe": {
    "audio_streams": [
      {
        "avg_frame_rate": "0/0",
        "bit_rate": "1152000",
        "bits_per_raw_sample": "24",
        "bits_per_sample": 24,
        "channels": 1,
        "codec_long_name": "PCM signed 24-bit little-endian",
        "codec_name": "pcm_s24le",
        "codec_tag": "0x0000",
        "codec_tag_string": "[0][0][0][0]",
        "codec_time_base": "1/48000",
        "codec_type": "audio",
        "disposition": {
          "attached_pic": 0,
          "clean_effects": 0,
          "comment": 0,
          "default": 0,
          "dub": 0,
          "forced": 0,
          "hearing_impaired": 0,
          "karaoke": 0,
          "lyrics": 0,
          "original": 0,
          "timed_thumbnails": 0,
          "visual_impaired": 0
        },
        "duration": "10686.075396",
        "duration_ts": 512931619,
        "index": 1,
        "r_frame_rate": "0/0",
        "sample_fmt": "s32",
        "sample_rate": "48000",
        "start_pts": 0,
        "start_time": "0.000000",
        "tags": {
          "file_package_umid": "0x060A2B340101010501010D201300000059C516F036E911EA9495AC1F6BB4EA3E"
        },
        "time_base": "1/48000"
      },
      {
        "avg_frame_rate": "0/0",
        "bit_rate": "1152000",
        "bits_per_raw_sample": "24",
        "bits_per_sample": 24,
        "channels": 1,
        "codec_long_name": "PCM signed 24-bit little-endian",
        "codec_name": "pcm_s24le",
        "codec_tag": "0x0000",
        "codec_tag_string": "[0][0][0][0]",
        "codec_time_base": "1/48000",
        "codec_type": "audio",
        "disposition": {
          "attached_pic": 0,
          "clean_effects": 0,
          "comment": 0,
          "default": 0,
          "dub": 0,
          "forced": 0,
          "hearing_impaired": 0,
          "karaoke": 0,
          "lyrics": 0,
          "original": 0,
          "timed_thumbnails": 0,
          "visual_impaired": 0
        },
        "duration": "10686.075396",
        "duration_ts": 512931619,
        "index": 2,
        "r_frame_rate": "0/0",
        "sample_fmt": "s32",
        "sample_rate": "48000",
        "start_pts": 0,
        "start_time": "0.000000",
        "tags": {
          "file_package_umid": "0x060A2B340101010501010D201300000059C516F036E911EA9495AC1F6BB4EA3E"
        },
        "time_base": "1/48000"
      },
      {
        "avg_frame_rate": "0/0",
        "bit_rate": "1152000",
        "bits_per_raw_sample": "24",
        "bits_per_sample": 24,
        "channels": 1,
        "codec_long_name": "PCM signed 24-bit little-endian",
        "codec_name": "pcm_s24le",
        "codec_tag": "0x0000",
        "codec_tag_string": "[0][0][0][0]",
        "codec_time_base": "1/48000",
        "codec_type": "audio",
        "disposition": {
          "attached_pic": 0,
          "clean_effects": 0,
          "comment": 0,
          "default": 0,
          "dub": 0,
          "forced": 0,
          "hearing_impaired": 0,
          "karaoke": 0,
          "lyrics": 0,
          "original": 0,
          "timed_thumbnails": 0,
          "visual_impaired": 0
        },
        "duration": "10686.075396",
        "duration_ts": 512931619,
        "index": 3,
        "r_frame_rate": "0/0",
        "sample_fmt": "s32",
        "sample_rate": "48000",
        "start_pts": 0,
        "start_time": "0.000000",
        "tags": {
          "file_package_umid": "0x060A2B340101010501010D201300000059C516F036E911EA9495AC1F6BB4EA3E"
        },
        "time_base": "1/48000"
      },
      {
        "avg_frame_rate": "0/0",
        "bit_rate": "1152000",
        "bits_per_raw_sample": "24",
        "bits_per_sample": 24,
        "channels": 1,
        "codec_long_name": "PCM signed 24-bit little-endian",
        "codec_name": "pcm_s24le",
        "codec_tag": "0x0000",
        "codec_tag_string": "[0][0][0][0]",
        "codec_time_base": "1/48000",
        "codec_type": "audio",
        "disposition": {
          "attached_pic": 0,
          "clean_effects": 0,
          "comment": 0,
          "default": 0,
          "dub": 0,
          "forced": 0,
          "hearing_impaired": 0,
          "karaoke": 0,
          "lyrics": 0,
          "original": 0,
          "timed_thumbnails": 0,
          "visual_impaired": 0
        },
        "duration": "10686.075396",
        "duration_ts": 512931619,
        "index": 4,
        "r_frame_rate": "0/0",
        "sample_fmt": "s32",
        "sample_rate": "48000",
        "start_pts": 0,
        "start_time": "0.000000",
        "tags": {
          "file_package_umid": "0x060A2B340101010501010D201300000059C516F036E911EA9495AC1F6BB4EA3E"
        },
        "time_base": "1/48000"
      },
      {
        "avg_frame_rate": "0/0",
        "bit_rate": "1152000",
        "bits_per_raw_sample": "24",
        "bits_per_sample": 24,
        "channels": 1,
        "codec_long_name": "PCM signed 24-bit little-endian",
        "codec_name": "pcm_s24le",
        "codec_tag": "0x0000",
        "codec_tag_string": "[0][0][0][0]",
        "codec_time_base": "1/48000",
        "codec_type": "audio",
        "disposition": {
          "attached_pic": 0,
          "clean_effects": 0,
          "comment": 0,
          "default": 0,
          "dub": 0,
          "forced": 0,
          "hearing_impaired": 0,
          "karaoke": 0,
          "lyrics": 0,
          "original": 0,
          "timed_thumbnails": 0,
          "visual_impaired": 0
        },
        "duration": "10686.075396",
        "duration_ts": 512931619,
        "index": 5,
        "r_frame_rate": "0/0",
        "sample_fmt": "s32",
        "sample_rate": "48000",
        "start_pts": 0,
        "start_time": "0.000000",
        "tags": {
          "file_package_umid": "0x060A2B340101010501010D201300000059C516F036E911EA9495AC1F6BB4EA3E"
        },
        "time_base": "1/48000"
      },
      {
        "avg_frame_rate": "0/0",
        "bit_rate": "1152000",
        "bits_per_raw_sample": "24",
        "bits_per_sample": 24,
        "channels": 1,
        "codec_long_name": "PCM signed 24-bit little-endian",
        "codec_name": "pcm_s24le",
        "codec_tag": "0x0000",
        "codec_tag_string": "[0][0][0][0]",
        "codec_time_base": "1/48000",
        "codec_type": "audio",
        "disposition": {
          "attached_pic": 0,
          "clean_effects": 0,
          "comment": 0,
          "default": 0,
          "dub": 0,
          "forced": 0,
          "hearing_impaired": 0,
          "karaoke": 0,
          "lyrics": 0,
          "original": 0,
          "timed_thumbnails": 0,
          "visual_impaired": 0
        },
        "duration": "10686.075396",
        "duration_ts": 512931619,
        "index": 6,
        "r_frame_rate": "0/0",
        "sample_fmt": "s32",
        "sample_rate": "48000",
        "start_pts": 0,
        "start_time": "0.000000",
        "tags": {
          "file_package_umid": "0x060A2B340101010501010D201300000059C516F036E911EA9495AC1F6BB4EA3E"
        },
        "time_base": "1/48000"
      },
      {
        "avg_frame_rate": "0/0",
        "bit_rate": "1152000",
        "bits_per_raw_sample": "24",
        "bits_per_sample": 24,
        "channels": 1,
        "codec_long_name": "PCM signed 24-bit little-endian",
        "codec_name": "pcm_s24le",
        "codec_tag": "0x0000",
        "codec_tag_string": "[0][0][0][0]",
        "codec_time_base": "1/48000",
        "codec_type": "audio",
        "disposition": {
          "attached_pic": 0,
          "clean_effects": 0,
          "comment": 0,
          "default": 0,
          "dub": 0,
          "forced": 0,
          "hearing_impaired": 0,
          "karaoke": 0,
          "lyrics": 0,
          "original": 0,
          "timed_thumbnails": 0,
          "visual_impaired": 0
        },
        "duration": "10686.075396",
        "duration_ts": 512931619,
        "index": 7,
        "r_frame_rate": "0/0",
        "sample_fmt": "s32",
        "sample_rate": "48000",
        "start_pts": 0,
        "start_time": "0.000000",
        "tags": {
          "file_package_umid": "0x060A2B340101010501010D201300000059C516F036E911EA9495AC1F6BB4EA3E"
        },
        "time_base": "1/48000"
      },
      {
        "avg_frame_rate": "0/0",
        "bit_rate": "1152000",
        "bits_per_raw_sample": "24",
        "bits_per_sample": 24,
        "channels": 1,
        "codec_long_name": "PCM signed 24-bit little-endian",
        "codec_name": "pcm_s24le",
        "codec_tag": "0x0000",
        "codec_tag_string": "[0][0][0][0]",
        "codec_time_base": "1/48000",
        "codec_type": "audio",
        "disposition": {
          "attached_pic": 0,
          "clean_effects": 0,
          "comment": 0,
          "default": 0,
          "dub": 0,
          "forced": 0,
          "hearing_impaired": 0,
          "karaoke": 0,
          "lyrics": 0,
          "original": 0,
          "timed_thumbnails": 0,
          "visual_impaired": 0
        },
        "duration": "10686.075396",
        "duration_ts": 512931619,
        "index": 8,
        "r_frame_rate": "0/0",
        "sample_fmt": "s32",
        "sample_rate": "48000",
        "start_pts": 0,
        "start_time": "0.000000",
        "tags": {
          "file_package_umid": "0x060A2B340101010501010D201300000059C516F036E911EA9495AC1F6BB4EA3E"
        },
        "time_base": "1/48000"
      }
    ],
    "data_streams": [
      {
        "avg_frame_rate": "0/0",
        "codec_tag": "0x0000",
        "codec_tag_string": "[0][0][0][0]",
        "codec_type": "data",
        "disposition": {
          "attached_pic": 0,
          "clean_effects": 0,
          "comment": 0,
          "default": 0,
          "dub": 0,
          "forced": 0,
          "hearing_impaired": 0,
          "karaoke": 0,
          "lyrics": 0,
          "original": 0,
          "timed_thumbnails": 0,
          "visual_impaired": 0
        },
        "duration": "10686.075400",
        "duration_ts": 640524,
        "index": 9,
        "r_frame_rate": "0/0",
        "start_pts": 0,
        "start_time": "0.000000",
        "tags": {
          "data_type": "vbi_vanc_smpte_436M",
          "file_package_umid": "0x060A2B340101010501010D201300000059C516F036E911EA9495AC1F6BB4EA3E"
        },
        "time_base": "1001/60000"
      }
    ],
    "format": {
      "bit_rate": "123985600",
      "duration": "10686.075400",
      "filename": "/mnt/archive2/ESPNLATINA/202001/9513124004/9513124004_original.mxf",
      "filename_extension": "mxf",
      "format_long_name": "MXF (Material eXchange Format)",
      "format_name": "mxf",
      "nb_programs": 0,
      "probe_score": 100,
      "size": "165614934576",
      "start_time": "0.000000",
      "streams_attachment_count": 0,
      "streams_audio_count": 8,
      "streams_count": 10,
      "streams_data_count": 1,
      "streams_image_count": 0,
      "streams_subtitle_count": 0,
      "streams_video_count": 1
    },
    "video_streams": [
      {
        "avg_frame_rate": "60000/1001",
        "bits_per_raw_sample": "10",
        "chroma_location": "left",
        "codec_long_name": "H.264 / AVC / MPEG-4 AVC / MPEG-4 part 10",
        "codec_name": "h264",
        "codec_tag": "0x0000",
        "codec_tag_string": "[0][0][0][0]",
        "codec_time_base": "1001/120000",
        "codec_type": "video",
        "coded_height": 720,
        "coded_width": 1280,
        "color_primaries": "bt709",
        "color_range": "pc",
        "color_space": "bt709",
        "color_transfer": "bt709",
        "display_aspect_ratio": "16:9",
        "disposition": {
          "attached_pic": 0,
          "clean_effects": 0,
          "comment": 0,
          "default": 0,
          "dub": 0,
          "forced": 0,
          "hearing_impaired": 0,
          "karaoke": 0,
          "lyrics": 0,
          "original": 0,
          "timed_thumbnails": 0,
          "visual_impaired": 0
        },
        "duration": "10686.075400",
        "duration_ts": 640524,
        "field_order": "progressive",
        "has_b_frames": 0,
        "height": 720,
        "index": 0,
        "is_avc": "false",
        "level": 41,
        "nal_length_size": "0",
        "pix_fmt": "yuv422p10le",
        "profile": "High 4:2:2 Intra",
        "r_frame_rate": "60000/1001",
        "refs": 1,
        "sample_aspect_ratio": "1:1",
        "start_pts": 0,
        "start_time": "0.000000",
        "tags": {
          "file_package_umid": "0x060A2B340101010501010D201300000059C516F036E911EA9495AC1F6BB4EA3E"
        },
        "time_base": "1001/60000",
        "width": 1280
      }
    ]
  },
  "mediainfo": {
    "audio_streams": [
      {
        "BitDepth": 24,
        "BitRate": 1152000,
        "BitRate_Mode": "CBR",
        "Channels": 1,
        "CodecID": "0D01030102060300-0402020101000000",
        "Delay": "35999.964",
        "Delay_DropFrame": "Yes",
        "Delay_Source": "Container",
        "Duration": "10686.075",
        "Format": "PCM",
        "Format_Settings_Endianness": "Little",
        "Format_Settings_Wrapping": "Frame (AES)",
        "FrameCount": 640524,
        "FrameRate": "59.940",
        "ID": 3,
        "SamplesPerFrame": "800.8",
        "SamplingCount": 512931616,
        "SamplingRate": 48000,
        "StreamOrder": 1,
        "StreamSize": 1538794800,
        "StreamSize_Proportion": "0.00929",
        "extra": {
          "BlockAlignment": 3,
          "Delay_SDTI": 36000000,
          "Locked": "Yes"
        }
      },
      {
        "BitDepth": 24,
        "BitRate": 1152000,
        "BitRate_Mode": "CBR",
        "Channels": 1,
        "CodecID": "0D01030102060300-0402020101000000",
        "Delay": "35999.964",
        "Delay_DropFrame": "Yes",
        "Delay_Source": "Container",
        "Duration": "10686.075",
        "Format": "PCM",
        "Format_Settings_Endianness": "Little",
        "Format_Settings_Wrapping": "Frame (AES)",
        "FrameCount": 640524,
        "FrameRate": "59.940",
        "ID": 4,
        "SamplesPerFrame": "800.8",
        "SamplingCount": 512931616,
        "SamplingRate": 48000,
        "StreamOrder": 2,
        "StreamSize": 1538794800,
        "StreamSize_Proportion": "0.00929",
        "extra": {
          "BlockAlignment": 3,
          "Delay_SDTI": 36000000,
          "Locked": "Yes"
        }
      },
      {
        "BitDepth": 24,
        "BitRate": 1152000,
        "BitRate_Mode": "CBR",
        "Channels": 1,
        "CodecID": "0D01030102060300-0402020101000000",
        "Delay": "35999.964",
        "Delay_DropFrame": "Yes",
        "Delay_Source": "Container",
        "Duration": "10686.075",
        "Format": "PCM",
        "Format_Settings_Endianness": "Little",
        "Format_Settings_Wrapping": "Frame (AES)",
        "FrameCount": 640524,
        "FrameRate": "59.940",
        "ID": 5,
        "SamplesPerFrame": "800.8",
        "SamplingCount": 512931616,
        "SamplingRate": 48000,
        "StreamOrder": 3,
        "StreamSize": 1538794800,
        "StreamSize_Proportion": "0.00929",
        "extra": {
          "BlockAlignment": 3,
          "Delay_SDTI": 36000000,
          "Locked": "Yes"
        }
      },
      {
        "BitDepth": 24,
        "BitRate": 1152000,
        "BitRate_Mode": "CBR",
        "Channels": 1,
        "CodecID": "0D01030102060300-0402020101000000",
        "Delay": "35999.964",
        "Delay_DropFrame": "Yes",
        "Delay_Source": "Container",
        "Duration": "10686.075",
        "Format": "PCM",
        "Format_Settings_Endianness": "Little",
        "Format_Settings_Wrapping": "Frame (AES)",
        "FrameCount": 640524,
        "FrameRate": "59.940",
        "ID": 6,
        "SamplesPerFrame": "800.8",
        "SamplingCount": 512931616,
        "SamplingRate": 48000,
        "StreamOrder": 4,
        "StreamSize": 1538794800,
        "StreamSize_Proportion": "0.00929",
        "extra": {
          "BlockAlignment": 3,
          "Delay_SDTI": 36000000,
          "Locked": "Yes"
        }
      },
      {
        "BitDepth": 24,
        "BitRate": 1152000,
        "BitRate_Mode": "CBR",
        "Channels": 1,
        "CodecID": "0D01030102060300-0402020101000000",
        "Delay": "35999.964",
        "Delay_DropFrame": "Yes",
        "Delay_Source": "Container",
        "Duration": "10686.075",
        "Format": "PCM",
        "Format_Settings_Endianness": "Little",
        "Format_Settings_Wrapping": "Frame (AES)",
        "FrameCount": 640524,
        "FrameRate": "59.940",
        "ID": 7,
        "SamplesPerFrame": "800.8",
        "SamplingCount": 512931616,
        "SamplingRate": 48000,
        "StreamOrder": 5,
        "StreamSize": 1538794800,
        "StreamSize_Proportion": "0.00929",
        "extra": {
          "BlockAlignment": 3,
          "Delay_SDTI": 36000000,
          "Locked": "Yes"
        }
      },
      {
        "BitDepth": 24,
        "BitRate": 1152000,
        "BitRate_Mode": "CBR",
        "Channels": 1,
        "CodecID": "0D01030102060300-0402020101000000",
        "Delay": "35999.964",
        "Delay_DropFrame": "Yes",
        "Delay_Source": "Container",
        "Duration": "10686.075",
        "Format": "PCM",
        "Format_Settings_Endianness": "Little",
        "Format_Settings_Wrapping": "Frame (AES)",
        "FrameCount": 640524,
        "FrameRate": "59.940",
        "ID": 8,
        "SamplesPerFrame": "800.8",
        "SamplingCount": 512931616,
        "SamplingRate": 48000,
        "StreamOrder": 6,
        "StreamSize": 1538794800,
        "StreamSize_Proportion": "0.00929",
        "extra": {
          "BlockAlignment": 3,
          "Delay_SDTI": 36000000,
          "Locked": "Yes"
        }
      },
      {
        "BitDepth": 24,
        "BitRate": 1152000,
        "BitRate_Mode": "CBR",
        "Channels": 1,
        "CodecID": "0D01030102060300-0402020101000000",
        "Delay": "35999.964",
        "Delay_DropFrame": "Yes",
        "Delay_Source": "Container",
        "Duration": "10686.075",
        "Format": "PCM",
        "Format_Settings_Endianness": "Little",
        "Format_Settings_Wrapping": "Frame (AES)",
        "FrameCount": 640524,
        "FrameRate": "59.940",
        "ID": 9,
        "SamplesPerFrame": "800.8",
        "SamplingCount": 512931616,
        "SamplingRate": 48000,
        "StreamOrder": 7,
        "StreamSize": 1538794800,
        "StreamSize_Proportion": "0.00929",
        "extra": {
          "BlockAlignment": 3,
          "Delay_SDTI": 36000000,
          "Locked": "Yes"
        }
      },
      {
        "BitDepth": 24,
        "BitRate": 1152000,
        "BitRate_Mode": "CBR",
        "Channels": 1,
        "CodecID": "0D01030102060300-0402020101000000",
        "Delay": "35999.964",
        "Delay_DropFrame": "Yes",
        "Delay_Source": "Container",
        "Duration": "10686.075",
        "Format": "PCM",
        "Format_Settings_Endianness": "Little",
        "Format_Settings_Wrapping": "Frame (AES)",
        "FrameCount": 640524,
        "FrameRate": "59.940",
        "ID": 10,
        "SamplesPerFrame": "800.8",
        "SamplingCount": 512931616,
        "SamplingRate": 48000,
        "StreamOrder": 8,
        "StreamSize": 1538794800,
        "StreamSize_Proportion": "0.00929",
        "extra": {
          "BlockAlignment": 3,
          "Delay_SDTI": 36000000,
          "Locked": "Yes"
        }
      }
    ],
    "format": {
      "AudioCount": 8,
      "Duration": "10686.075",
      "Encoded_Application_CompanyName": "oc  ",
      "Encoded_Application_Name": "OCtk",
      "Encoded_Application_Version": "2.10",
      "Encoded_Date": "2020-01-14 11:17:24.968",
      "FileExtension": "mxf",
      "FileSize": 165614934576,
      "File_Modified_Date": "UTC 2020-01-25 16:46:00",
      "File_Modified_Date_Local": "2020-01-25 16:46:00",
      "FooterSize": 560,
      "Format": "MXF",
      "Format_Profile": "OP-1a",
      "Format_Settings": "Closed / Complete",
      "Format_Version": "1.3",
      "FrameCount": 640524,
      "FrameRate": "59.940",
      "OtherCount": 3,
      "OverallBitRate": 123985608,
      "StreamSize": 13194889,
      "VideoCount": 1,
      "filename": "/mnt/archive2/ESPNLATINA/202001/9513124004/9513124004_original.mxf",
      "streams_attachment_count": 0,
      "streams_audio_count": 8,
      "streams_count": 9,
      "streams_data_count": 0,
      "streams_image_count": 0,
      "streams_other_count": 0,
      "streams_subtitle_count": 0,
      "streams_video_count": 1
    },
    "other_streams": [
      {
        "Format": "MXF TC",
        "ID": "1-Material",
        "TimeCode_FirstFrame": "10:00:00;00",
        "TimeCode_Settings": "Material Package",
        "TimeCode_Striped": "Yes",
        "Type": "Time code"
      },
      {
        "Format": "MXF TC",
        "ID": "1-Source",
        "TimeCode_FirstFrame": "10:00:00;00",
        "TimeCode_Settings": "Source Package",
        "TimeCode_Striped": "Yes",
        "Type": "Time code"
      },
      {
        "Format": "SMPTE TC",
        "MuxingMode": "SDTI",
        "TimeCode_FirstFrame": "10:00:00;00",
        "Type": "Time code"
      }
    ],
      "video_streams": [
      {
        "BitDepth": 10,
        "BitRate": 113664000,
        "ChromaSubsampling": "4:2:2",
        "CodecID": "0D01030102106001-0401020201323108",
        "ColorSpace": "YUV",
        "Delay": "35999.964",
        "DisplayAspectRatio": "1.778",
        "Duration": "10686.075",
        "Format": "AVC",
        "Format_Level": "4.1",
        "Format_Profile": "High 4:2:2 Intra",
        "Format_Settings_CABAC": "No",
        "Format_Settings_GOP": "N=1",
        "Format_Settings_Wrapping": "Frame",
        "FrameCount": 640524,
        "FrameRate": "59.940",
        "Height": 720,
        "ID": 2,
        "PixelAspectRatio": "1.000",
        "Sampled_Height": 720,
        "Sampled_Width": 1280,
        "ScanType": "Progressive",
        "Standard": "Component",
        "StreamOrder": 0,
        "StreamSize": 153291381287,
        "Width": 1280,
        "colour_description_present": "Yes",
        "colour_description_present_Source": "Stream",
        "colour_primaries": "BT.709",
        "colour_primaries_Source": "Container / Stream",
        "colour_range": "Limited",
        "colour_range_Original": "Full",
        "colour_range_Original_Source": "Stream",
        "colour_range_Source": "Container",
        "extra": {
          "Delay_SDTI": 36000000
        },
        "matrix_coefficients": "BT.709",
        "matrix_coefficients_Source": "Container / Stream",
        "transfer_characteristics": "BT.709",
        "transfer_characteristics_Source": "Container / Stream"
      }
    ]
  }
}
